<?xml version="1.0" standalone="no"?>
<!DOCTYPE svg PUBLIC "-//W3C//DTD SVG 20010904//EN"
 "http://www.w3.org/TR/2001/REC-SVG-20010904/DTD/svg10.dtd">
<svg version="1.0" xmlns="http://www.w3.org/2000/svg"
 width="1200.000000pt" height="438.000000pt" viewBox="0 0 1200.000000 438.000000"
 preserveAspectRatio="xMidYMid meet">

<g transform="translate(0.000000,438.000000) scale(0.100000,-0.100000)"
fill="#000000" stroke="none">
<path d="M1300 3409 c-36 -6 -69 -14 -73 -18 -4 -4 -16 -50 -27 -101 -10 -51
-21 -94 -24 -97 -3 -3 -33 -15 -68 -27 -35 -12 -87 -35 -117 -50 l-54 -27 -85
57 -86 57 -35 -19 c-71 -38 -301 -278 -301 -314 0 -5 25 -46 55 -92 l56 -82
-41 -88 c-22 -48 -43 -101 -46 -118 -4 -17 -10 -33 -14 -35 -5 -3 -50 -14
-100 -24 -51 -10 -96 -23 -100 -27 -12 -12 -30 -152 -30 -227 0 -33 5 -100 11
-149 l12 -88 36 -9 c20 -6 66 -15 103 -22 l67 -12 26 -76 c15 -42 38 -97 51
-123 l24 -48 -56 -85 c-67 -99 -68 -89 31 -207 67 -80 218 -208 245 -208 8 0
51 24 95 53 l79 54 81 -38 c44 -20 99 -42 122 -48 31 -9 44 -18 47 -34 8 -36
36 -179 36 -182 0 -2 33 -9 72 -15 81 -14 336 -9 378 7 22 9 27 22 45 109 l21
98 64 23 c36 13 91 36 123 52 l58 28 87 -58 86 -57 45 31 c66 44 203 180 250
247 l41 58 -56 84 c-49 73 -55 86 -46 108 6 14 26 63 45 109 20 46 37 92 40
101 3 13 28 21 101 35 88 15 98 20 108 44 16 38 22 315 9 385 -6 33 -16 63
-21 66 -6 4 -52 14 -104 24 l-93 17 -17 57 c-9 31 -32 86 -50 122 l-32 65 59
88 59 89 -57 73 c-31 41 -85 101 -120 134 -61 56 -146 121 -160 121 -4 0 -45
-25 -91 -55 l-85 -55 -57 29 c-31 15 -86 38 -122 50 l-65 21 -20 102 -20 102
-35 8 c-58 13 -290 18 -360 7z m290 -410 c327 -53 596 -300 681 -624 27 -103
29 -279 5 -379 -63 -261 -230 -468 -467 -580 -125 -59 -184 -71 -359 -71 -148
1 -159 2 -250 33 -277 96 -483 316 -556 597 -28 105 -26 304 4 408 47 166 118
284 240 399 188 177 450 258 702 217z"/>
<path d="M1342 2870 c-313 -57 -542 -298 -582 -612 -5 -45 -10 -85 -10 -89 0
-3 22 5 50 19 87 43 172 48 433 28 l232 -18 108 112 c104 110 337 386 337 401
0 25 -174 119 -265 143 -74 20 -232 28 -303 16z"/>
<path d="M1968 2452 c-42 -65 -93 -148 -113 -185 l-38 -69 59 7 c32 4 70 12
83 17 22 8 23 7 10 -8 -15 -18 -116 -67 -160 -77 -21 -5 -31 -19 -47 -59 -33
-84 -44 -136 -37 -182 6 -39 4 -46 -27 -79 -57 -60 -115 -59 -151 3 -29 49
-22 116 23 208 l39 82 -67 0 -67 0 -90 -93 c-49 -51 -119 -115 -155 -142 -83
-64 -202 -123 -262 -131 -29 -4 -48 -12 -48 -19 0 -20 110 -115 182 -158 34
-21 99 -49 143 -64 68 -22 98 -26 205 -27 143 -1 213 14 325 69 141 70 254
186 321 332 46 98 64 180 64 297 0 112 -18 198 -61 293 -52 116 -44 117 -131
-15z"/>
<path d="M1682 2338 c-80 -88 -117 -135 -109 -140 7 -4 28 -8 47 -8 34 0 37 3
84 88 27 48 62 111 78 140 17 28 28 52 26 52 -3 0 -59 -60 -126 -132z"/>
<path d="M905 2126 c-49 -19 -95 -68 -95 -102 0 -72 59 -114 163 -114 118 0
250 57 369 160 l53 45 -45 7 c-25 4 -126 10 -225 13 -146 5 -188 3 -220 -9z"/>
<path d="M3745 2176 c-162 -228 -295 -417 -295 -420 0 -3 61 -6 135 -6 l134 0
61 90 61 90 307 0 307 0 60 -90 60 -89 153 -1 c124 0 151 2 145 13 -4 7 -140
196 -301 420 l-293 407 -119 0 -119 0 -296 -414z m496 73 c44 -66 82 -126 86
-134 4 -13 -21 -15 -176 -15 -119 0 -181 4 -181 10 0 18 174 268 183 263 4 -3
44 -58 88 -124z"/>
<path d="M5207 2584 c-4 -4 -7 -193 -7 -421 l0 -413 135 0 135 0 0 150 0 150
174 0 173 0 99 -150 99 -150 164 0 163 0 -24 33 c-14 17 -64 85 -111 149 l-87
118 27 5 c163 34 190 79 181 301 -5 135 -20 167 -93 204 l-50 25 -485 3 c-267
2 -489 0 -493 -4z m852 -188 c7 -9 11 -41 9 -82 -3 -62 -6 -70 -28 -81 -18 -9
-98 -13 -297 -13 l-273 0 0 95 0 95 289 0 c236 0 291 -3 300 -14z"/>
<path d="M6750 2171 l0 -421 130 0 130 0 0 393 0 392 -107 23 c-60 13 -118 26
-130 29 l-23 5 0 -421z"/>
<path d="M8990 2170 l0 -420 120 0 121 0 -3 265 c-2 146 -2 265 -1 265 1 0
180 -119 397 -265 l394 -265 91 0 91 0 0 420 0 420 -120 0 -120 0 0 -266 c0
-146 -3 -264 -7 -262 -5 2 -185 121 -401 266 l-393 262 -84 0 -85 0 0 -420z"/>
<path d="M10768 2580 c-70 -9 -116 -35 -143 -80 -17 -30 -20 -52 -20 -165 0
-157 12 -186 90 -225 l50 -25 368 -3 367 -4 0 -74 0 -74 -317 2 c-311 3 -318
3 -321 23 -2 17 -19 24 -105 43 -57 12 -109 22 -116 22 -10 0 -12 -19 -10 -84
5 -97 20 -126 85 -160 37 -20 57 -21 432 -24 436 -3 482 1 537 49 45 40 58
102 54 245 -4 92 -8 115 -27 145 -44 73 -51 74 -474 77 l-378 3 0 69 0 70 315
0 c265 0 315 -2 315 -14 0 -10 34 -22 110 -40 61 -14 115 -26 122 -26 17 0 2
126 -20 168 -23 44 -72 71 -154 82 -73 11 -676 11 -760 0z"/>
<path d="M7520 2165 l0 -415 515 0 515 0 0 90 0 90 -382 2 -383 3 -3 83 -3 82
236 0 236 0 -3 68 -3 67 -232 3 -233 2 0 80 0 80 385 0 385 0 0 90 0 90 -515
0 -515 0 0 -415z"/>
<path d="M11768 2560 c-31 -24 -39 -59 -22 -98 16 -39 47 -55 90 -48 41 8 64
39 64 87 0 68 -78 102 -132 59z m90 -16 c42 -29 15 -114 -36 -114 -33 0 -62
29 -62 62 0 59 50 86 98 52z"/>
<path d="M11790 2495 c0 -28 4 -44 10 -40 6 3 10 13 10 22 0 11 5 9 18 -7 l18
-23 0 44 c-1 40 -3 44 -28 47 -27 3 -28 2 -28 -43z m40 21 c0 -11 -19 -15 -25
-6 -3 5 1 10 9 10 9 0 16 -2 16 -4z"/>
<path d="M1850 1130 c-41 -41 -10 -110 49 -110 34 0 61 30 61 67 0 30 -34 63
-65 63 -14 0 -34 -9 -45 -20z m83 -21 c19 -26 12 -54 -18 -67 -44 -20 -88 41
-53 76 19 19 55 14 71 -9z"/>
<path d="M1870 1083 c0 -27 3 -34 9 -24 8 12 13 12 24 3 12 -11 14 -7 13 20
-1 26 -6 34 -24 36 -19 3 -22 -1 -22 -35z"/>
</g>
</svg>
