<?xml version="1.0" standalone="no"?>
<!DOCTYPE svg PUBLIC "-//W3C//DTD SVG 20010904//EN"
 "http://www.w3.org/TR/2001/REC-SVG-20010904/DTD/svg10.dtd">
<svg version="1.0" xmlns="http://www.w3.org/2000/svg"
 width="1089.000000pt" height="598.000000pt" viewBox="0 0 1089.000000 598.000000"
 preserveAspectRatio="xMidYMid meet">

<g transform="translate(0.000000,598.000000) scale(0.100000,-0.100000)"
fill="#000000" stroke="none">
<path d="M8059 5760 c-306 -75 -512 -294 -565 -601 -19 -113 -13 -202 22 -307
29 -87 47 -117 181 -294 56 -76 103 -140 103 -143 0 -2 -1486 -6 -3302 -7
-3117 -3 -3308 -4 -3391 -21 -297 -60 -499 -158 -648 -314 -257 -268 -336
-735 -193 -1136 113 -314 363 -550 675 -637 189 -53 1 -50 3476 -50 2079 0
3224 -3 3228 -10 3 -5 -153 -170 -348 -367 -413 -419 -470 -491 -534 -678 -40
-117 -50 -234 -30 -354 37 -225 151 -407 327 -520 122 -79 295 -131 435 -131
81 0 219 27 304 60 160 62 235 123 585 479 517 525 1938 1985 2147 2206 121
128 160 218 160 369 0 111 -19 185 -72 286 -80 154 -265 356 -1298 1414 -306
313 -585 591 -621 618 -185 141 -422 192 -641 138z m-5363 -1674 c105 -49 167
-161 167 -306 0 -69 -7 -108 -37 -210 -96 -323 -222 -702 -255 -765 -72 -138
-202 -238 -345 -264 -91 -17 -1170 -15 -1163 2 2 6 16 53 31 102 15 50 31 101
36 115 5 14 27 84 49 155 55 178 338 1089 357 1148 l16 47 546 0 547 0 51 -24z
m1677 4 c57 -21 103 -63 133 -120 15 -27 19 -56 19 -130 0 -95 -6 -125 -92
-429 -20 -70 -79 -135 -158 -172 -33 -16 -66 -29 -74 -29 -8 0 -2 -9 12 -20
14 -12 40 -50 58 -85 49 -99 45 -148 -26 -382 l-58 -193 -318 0 -317 0 17 58
c113 367 114 374 105 400 -12 34 -58 60 -114 64 l-44 3 -18 -50 c-9 -27 -47
-146 -84 -262 l-68 -213 -317 0 -318 0 9 28 c5 15 29 92 54 172 24 80 65 213
91 295 26 83 59 191 75 240 16 50 38 119 48 155 19 63 183 592 203 658 l11 32
558 0 c535 0 562 -1 613 -20z m1043 3 c-73 -250 -441 -1477 -457 -1530 l-11
-33 -300 0 -300 0 8 33 c3 17 21 79 39 137 18 58 54 173 79 255 25 83 109 359
187 615 78 256 146 482 151 503 l10 37 300 0 c280 0 299 -1 294 -17z m624 10
c0 -5 -22 -222 -49 -483 -27 -261 -48 -476 -47 -477 1 -2 92 214 202 480 l200
482 348 3 348 2 -217 -427 c-120 -236 -301 -591 -402 -790 l-185 -363 -434 0
-435 0 6 63 c6 66 95 1469 95 1499 0 17 17 18 285 18 157 0 285 -3 285 -7z
m2130 0 c0 -5 -26 -93 -58 -198 l-59 -190 -210 -3 -210 -2 -27 -93 c-15 -50
-29 -100 -32 -109 -5 -17 9 -18 200 -18 113 0 206 -1 206 -2 0 -2 -22 -75 -49
-163 l-48 -160 -205 -3 -204 -2 -36 -110 -36 -110 205 0 c190 0 204 -1 200
-17 -16 -56 -91 -314 -101 -348 l-13 -40 -516 -3 c-284 -1 -517 1 -517 5 0 5
10 37 21 73 11 36 32 100 45 143 13 42 35 113 49 157 14 44 36 115 49 158 47
153 228 730 277 885 l50 157 509 0 c281 0 510 -3 510 -7z m632 -275 l3 -283
164 283 164 282 333 0 c184 0 334 -2 334 -5 0 -3 -131 -173 -292 -378 -160
-205 -295 -376 -299 -382 -4 -5 20 -185 52 -400 32 -214 58 -396 59 -402 0
-10 -70 -13 -316 -13 l-317 0 7 153 c3 83 9 211 13 282 3 72 4 128 1 125 -3
-3 -78 -130 -168 -282 l-162 -278 -310 0 -310 0 24 33 c14 17 140 195 282 394
l257 362 -35 361 c-20 198 -36 376 -36 395 l0 35 275 0 275 0 2 -282z"/>
<path d="M2068 3693 c-9 -2 -19 -12 -22 -21 -59 -198 -126 -421 -166 -552 -27
-91 -50 -168 -50 -172 0 -13 119 -9 153 6 18 7 40 22 49 32 16 19 159 461 179
556 13 61 -2 113 -39 132 -33 17 -81 25 -104 19z"/>
<path d="M3708 3694 c-3 -5 -24 -69 -47 -141 -23 -73 -44 -140 -48 -149 -6
-15 3 -16 76 -12 112 6 128 19 164 134 30 95 29 125 -6 149 -26 17 -132 31
-139 19z"/>
</g>
</svg>
