<svg version="1.1" id="Layer_1" xmlns="http://www.w3.org/2000/svg" xmlns:xlink="http://www.w3.org/1999/xlink" x="0px" y="0px"
	 width="100%" viewBox="0 0 1200 675" enable-background="new 0 0 1200 675" xml:space="preserve">
<path fill="#FFFFFE" opacity="1.000000" stroke="none" 
	d="
M879.000000,676.000000 
	C586.000000,676.000000 293.500031,676.000000 1.000039,676.000000 
	C1.000026,451.000031 1.000026,226.000061 1.000013,1.000070 
	C400.999969,1.000046 800.999939,1.000046 1201.000000,1.000023 
	C1201.000000,225.999939 1201.000000,450.999878 1201.000000,675.999878 
	C1093.833374,676.000000 986.666687,676.000000 879.000000,676.000000 
M412.500000,109.914291 
	C282.010681,109.914192 151.521347,109.944420 21.032187,109.799988 
	C15.958079,109.794373 14.659738,111.087936 14.664640,116.172516 
	C14.807194,263.994354 14.772857,411.816376 14.795424,559.638367 
	C14.796667,567.784302 13.713585,567.071167 22.330582,567.071289 
	C361.971161,567.076965 701.611755,567.076782 1041.252319,567.075195 
	C1086.915405,567.074951 1132.578613,567.020508 1178.241333,567.132935 
	C1182.098633,567.142456 1183.288696,566.279236 1183.285522,562.149231 
	C1183.170532,413.494141 1183.173462,264.838898 1183.323486,116.183876 
	C1183.328613,111.105232 1182.016846,109.790977 1176.941162,109.793564 
	C922.460754,109.923218 667.980408,109.910973 412.500000,109.914291 
z"/>
<path fill="#E7AF29" opacity="1.000000" stroke="none" 
	d="
M413.000000,109.914230 
	C667.980408,109.910973 922.460754,109.923218 1176.941162,109.793564 
	C1182.016846,109.790977 1183.328613,111.105232 1183.323486,116.183876 
	C1183.173462,264.838898 1183.170532,413.494141 1183.285522,562.149231 
	C1183.288696,566.279236 1182.098633,567.142456 1178.241333,567.132935 
	C1132.578613,567.020508 1086.915405,567.074951 1041.252319,567.075195 
	C701.611755,567.076782 361.971161,567.076965 22.330582,567.071289 
	C13.713585,567.071167 14.796667,567.784302 14.795424,559.638367 
	C14.772857,411.816376 14.807194,263.994354 14.664640,116.172516 
	C14.659738,111.087936 15.958079,109.794373 21.032187,109.799988 
	C151.521347,109.944420 282.010681,109.914192 413.000000,109.914230 
M88.281822,497.306000 
	C88.651390,497.421753 89.020966,497.537476 89.332047,497.810089 
	C89.332047,497.810089 89.198677,497.708923 89.164680,498.509613 
	C92.015144,499.339844 94.865379,500.896332 97.716110,500.897278 
	C432.489380,501.006073 767.262695,500.999512 1102.036011,500.998810 
	C1103.202393,500.998810 1104.378052,501.087677 1105.533569,500.974701 
	C1109.156372,500.620483 1113.070923,496.874146 1113.006592,493.465790 
	C1113.006592,493.465790 1113.245361,493.033997 1113.921509,493.003845 
	C1114.608032,492.320709 1115.294678,491.637604 1115.991943,490.302338 
	C1116.019287,489.866516 1116.046753,489.430725 1116.585693,488.560455 
	C1116.714355,487.681152 1116.843018,486.801819 1116.968018,484.994904 
	C1116.965942,389.483154 1116.963745,293.971405 1116.961914,198.459671 
	C1116.961914,195.963760 1117.448853,193.341003 1116.838867,191.004425 
	C1116.095093,188.154800 1114.429810,185.545700 1113.046021,182.128204 
	C1109.944336,176.810730 1104.818970,176.048599 1099.356445,176.048599 
	C766.199280,176.048370 433.042145,176.028931 99.884995,176.117996 
	C86.244141,176.121643 80.996536,181.124130 81.004158,194.679214 
	C81.049454,275.176910 81.026550,355.674591 81.026871,436.172302 
	C81.026939,452.505157 80.882248,468.840698 81.180122,485.168152 
	C81.227013,487.738831 83.280510,490.272919 84.779556,493.120178 
	C85.024574,493.363129 85.122475,493.655334 84.855614,494.022552 
	C84.855614,494.022552 84.681595,494.155762 84.452370,494.334290 
	C84.381172,494.658905 84.521469,494.868439 85.253334,495.445587 
	C85.815933,495.639130 86.378532,495.832672 87.513489,496.005127 
	C87.704399,496.004791 87.895317,496.004486 88.021217,496.366211 
	C88.021217,496.366211 88.070839,496.730652 88.281822,497.306000 
z"/>
<path fill="#232323" opacity="1.000000" stroke="none" 
	d="
M85.073250,493.996826 
	C85.122475,493.655334 85.024574,493.363129 84.537888,492.638184 
	C84.172150,491.274750 84.048080,490.393311 83.942818,489.000610 
	C84.292412,387.300049 84.623215,286.110840 84.972504,184.954620 
	C84.991005,184.987640 84.918381,184.966324 85.259521,184.935196 
	C86.027382,184.216202 86.454102,183.528336 86.916153,182.897919 
	C86.951477,182.955368 86.838417,182.881805 87.186920,182.884354 
	C87.991302,182.206390 88.447189,181.525894 88.942108,180.879822 
	C88.981148,180.914276 88.877419,180.905197 89.237534,180.934875 
	C90.377106,180.568573 91.156555,180.172592 91.944183,179.823914 
	C91.952362,179.871231 91.859177,179.848083 92.291702,179.893265 
	C96.015045,179.628784 99.305824,179.048309 102.596695,179.047882 
	C435.729950,179.005142 768.863220,179.006210 1102.383545,179.006744 
	C1103.544678,178.975800 1104.318604,178.942734 1105.072876,178.871094 
	C1105.053101,178.832520 1105.129883,178.792374 1105.137939,179.179214 
	C1106.475342,179.998489 1107.804810,180.430939 1109.092896,180.914413 
	C1109.051514,180.965439 1109.084351,180.838211 1109.167969,181.099518 
	C1109.561523,181.530640 1109.871460,181.700455 1110.164551,181.818344 
	C1110.147705,181.766434 1110.253174,181.738327 1110.190918,182.104980 
	C1111.107178,183.304916 1112.085815,184.138214 1113.036011,184.986481 
	C1113.007568,185.001434 1113.031860,184.941986 1113.016113,185.290573 
	C1113.358276,186.425140 1113.716187,187.211121 1114.040405,187.995880 
	C1114.006714,187.994659 1114.032959,187.932587 1114.016724,188.406464 
	C1113.998291,287.506500 1113.995239,386.132660 1114.002686,484.758789 
	C1114.002808,486.254059 1114.135132,487.749359 1114.143799,489.202240 
	C1114.081787,489.159851 1114.207031,489.076874 1113.891113,489.238159 
	C1113.521973,490.068604 1113.468506,490.737762 1113.447510,491.445099 
	C1113.480103,491.483276 1113.501831,491.581085 1113.154541,491.518616 
	C1110.262329,493.753967 1107.717285,496.051758 1105.119629,498.306030 
	C1105.067017,498.262543 1105.167847,498.170502 1104.687500,498.115479 
	C1102.208496,498.039215 1100.209717,497.999268 1098.210938,497.999237 
	C765.868225,497.997589 433.525543,497.999573 101.182869,497.991211 
	C97.801491,497.991119 94.420120,497.858185 90.730637,497.801025 
	C90.014580,497.779480 89.606628,497.744202 89.198677,497.708923 
	C89.198677,497.708923 89.332047,497.810089 89.371689,497.563538 
	C89.411339,497.317017 89.433151,496.978180 89.478027,496.776611 
	C89.044006,496.384735 88.565117,496.194458 88.086227,496.004211 
	C87.895317,496.004486 87.704399,496.004791 87.090820,495.759949 
	C86.136520,495.008820 85.604881,494.502808 85.073250,493.996826 
M115.649605,214.343430 
	C115.432259,215.625854 115.029709,216.907532 115.024666,218.190796 
	C114.901276,249.606216 114.811745,281.021820 114.804832,312.437408 
	C114.804718,312.949585 115.905403,313.462036 116.835175,314.608459 
	C116.894081,314.841370 116.952995,315.074280 117.132561,315.979523 
	C119.639465,316.324768 122.145699,316.964783 124.653374,316.970459 
	C155.023666,317.039459 185.394196,317.030426 215.764496,316.960724 
	C217.042511,316.957794 218.318741,316.163727 219.975830,314.900269 
	C220.095596,313.915924 220.319672,312.931580 220.320038,311.947205 
	C220.331894,279.657898 220.325287,247.368576 220.301102,215.079269 
	C220.300400,214.136063 220.080826,213.193024 219.951614,212.156174 
	C219.033035,211.998795 218.400879,211.796021 217.768616,211.795731 
	C185.313187,211.781067 152.857697,211.759644 120.402626,211.868805 
	C119.052994,211.873337 117.707520,213.115784 115.649605,214.343430 
M370.715179,212.436615 
	C370.129059,212.075867 369.542969,211.715118 368.620117,210.693695 
	C367.858673,210.462830 367.097565,210.031433 366.335724,210.030197 
	C343.697937,209.993774 321.060059,209.980713 298.422455,210.056671 
	C297.294586,210.060440 296.169525,210.896011 294.350311,211.986740 
	C294.199249,213.623016 293.916962,215.259232 293.916199,216.895584 
	C293.893005,266.361877 293.922638,315.828217 293.861420,365.294464 
	C293.854828,370.610474 293.590851,375.952332 293.022339,381.236603 
	C291.394958,396.363708 282.686707,403.702454 266.892548,402.826263 
	C266.271545,403.044525 265.650513,403.262756 264.379211,403.817841 
	C263.909698,403.727509 263.440186,403.637177 262.675842,402.845428 
	C262.112122,402.571381 261.549500,402.060669 260.984558,402.058136 
	C248.928162,402.004028 236.871292,401.974976 224.815369,402.061432 
	C223.884079,402.068115 222.959137,402.964966 221.222977,403.712250 
	C219.402847,403.589172 217.572922,403.547729 215.764130,403.330292 
	C199.147751,401.333008 192.131943,394.867889 189.807816,378.395264 
	C188.886978,371.868713 189.365158,365.153595 188.940582,358.541382 
	C188.845963,357.067749 187.633163,355.665863 186.776367,353.832458 
	C186.497253,353.963654 186.218140,354.094849 185.048599,354.521179 
	C176.445694,354.553070 167.842468,354.646088 159.239944,354.602600 
	C146.184357,354.536560 133.129227,354.375702 119.877274,353.869629 
	C119.607872,353.997559 119.338478,354.125488 118.387978,354.652435 
	C117.943642,355.284515 117.090736,355.932159 117.114189,356.546387 
	C117.881844,376.654053 117.415245,396.924255 119.917152,416.820099 
	C122.839478,440.059174 137.388535,455.030792 160.163147,460.558990 
	C172.376007,463.523499 185.057480,465.508148 197.599380,465.966339 
	C222.889160,466.890228 248.231567,466.767944 273.545319,466.475739 
	C286.166595,466.330048 298.874054,465.584167 311.364807,463.838257 
	C339.571075,459.895660 359.315857,445.155762 367.392456,416.933044 
	C368.888184,411.706512 369.690826,406.281647 371.330963,400.718994 
	C371.197540,400.140656 371.064117,399.562347 370.742249,398.064819 
	C370.776978,339.695892 370.809540,281.326935 370.855621,222.958008 
	C370.857178,220.969589 370.994263,218.981262 371.745697,216.876907 
	C373.433350,215.273636 373.784760,213.891510 370.715179,212.436615 
M638.730835,397.355011 
	C636.462585,396.989166 632.443481,395.835938 632.198792,396.380066 
	C629.917175,401.453674 625.279968,400.193176 621.431152,401.096802 
	C619.896729,401.457062 618.479553,402.316681 616.251587,403.220428 
	C615.184021,403.200256 614.116516,403.180115 612.470093,402.544495 
	C611.666992,402.385071 610.863953,402.087189 610.060730,402.086334 
	C585.577515,402.059814 561.094299,402.046997 536.611267,402.106659 
	C535.393677,402.109619 534.177734,402.781403 532.310730,403.289551 
	C531.878052,403.207550 531.445312,403.125519 530.571411,402.469086 
	C528.361084,402.382721 526.150757,402.296387 523.105042,402.306213 
	C520.977295,401.928223 518.840271,401.595459 516.723206,401.165039 
	C501.005707,397.969818 489.912598,388.975281 489.035736,372.695282 
	C487.768036,349.159607 487.430450,325.425537 489.017365,301.932953 
	C490.209442,284.285309 498.953156,277.200806 516.435730,273.904327 
	C519.212280,273.380798 522.035583,272.814056 524.842407,272.786102 
	C556.316467,272.472626 587.793152,272.017792 619.265015,272.226746 
	C625.564331,272.268555 632.079529,274.320190 638.077271,276.562836 
	C645.630371,279.387115 649.758789,285.621674 650.993896,293.613373 
	C651.441162,296.507172 651.681946,299.432861 652.013245,302.311707 
	C677.838074,302.311707 703.256592,302.311707 730.143616,302.311707 
	C729.011475,288.305328 728.873718,274.594788 726.620483,261.241211 
	C722.017944,233.964798 705.029602,217.786163 678.042480,213.244873 
	C662.514038,210.631805 646.630371,209.245651 630.880737,209.006668 
	C592.403503,208.422791 553.910156,208.662292 515.425415,208.904053 
	C496.228760,209.024643 477.182709,210.925156 458.804291,217.035110 
	C442.614075,222.417648 429.333649,231.623077 420.828461,246.773300 
	C413.672241,259.520630 410.194092,273.493408 409.901611,287.911713 
	C409.256470,319.714508 409.150635,351.534027 409.305634,383.344391 
	C409.371613,396.894135 411.679779,410.274139 417.629059,422.635895 
	C429.658264,447.630707 450.670074,460.163391 477.275818,464.050903 
	C489.093048,465.777588 501.097656,466.221802 513.261353,467.993011 
	C514.463196,468.327423 515.664612,468.952393 516.866943,468.954041 
	C554.250549,469.005310 591.634277,469.014801 629.017700,468.917053 
	C630.342834,468.913605 631.665039,467.755249 633.802368,466.733429 
	C648.985779,465.152588 664.366821,464.607208 679.307739,461.755737 
	C703.598816,457.119781 721.076599,443.521637 728.235046,418.851013 
	C732.990845,402.461304 732.790833,385.669983 731.723450,368.854950 
	C731.664062,367.918610 730.607605,367.045502 729.856323,365.326080 
	C728.884460,364.887878 727.913818,364.070129 726.940491,364.067078 
	C704.038879,363.995239 681.136841,363.982330 658.235596,364.101227 
	C657.148926,364.106842 656.069092,365.424530 654.362183,366.656281 
	C653.908203,370.570465 653.600098,374.508270 652.970520,378.394012 
	C651.546631,387.182129 647.958435,394.502747 638.730835,397.355011 
M764.646362,214.066208 
	C764.389771,214.182022 764.133179,214.297836 763.876587,214.413681 
	C764.331604,214.619843 764.786621,214.826004 765.547852,215.922974 
	C765.547852,298.499237 765.547852,381.075500 765.547852,463.951477 
	C767.483704,463.951477 768.635864,463.951630 769.788086,463.951447 
	C848.445679,463.939423 927.103821,464.069031 1005.760254,463.756165 
	C1017.001709,463.711426 1028.427734,462.446014 1039.430908,460.137451 
	C1061.754150,455.453796 1077.178833,442.557068 1082.540527,419.537872 
	C1086.185791,403.886841 1086.300781,388.128052 1082.616943,372.477783 
	C1078.347778,354.340912 1067.036377,342.780426 1049.068726,337.775391 
	C1046.458130,337.048218 1043.833984,336.370300 1040.216187,335.401947 
	C1042.199707,334.485413 1043.204956,334.026398 1044.205566,333.557220 
	C1045.410889,332.991974 1046.631104,332.454407 1047.812622,331.842651 
	C1062.048462,324.472168 1071.985229,313.492950 1074.864990,297.429871 
	C1076.174805,290.124207 1076.448608,282.513611 1076.217285,275.071625 
	C1075.281738,244.986954 1059.763916,224.729874 1030.886963,216.649948 
	C1021.194275,213.937866 1010.953186,213.185669 1000.666138,210.838470 
	C999.265869,210.560471 997.865723,210.039978 996.465332,210.039215 
	C921.441528,209.998367 846.417725,209.993622 771.393982,210.056717 
	C769.942627,210.057938 768.491882,210.911469 766.461060,211.734604 
	C766.039551,212.510086 765.618042,213.285568 764.646362,214.066208 
z"/>
<path fill="#BC983F" opacity="1.000000" stroke="none" 
	d="
M83.924019,489.511902 
	C84.048080,490.393311 84.172150,491.274750 84.351212,492.490051 
	C83.280510,490.272919 81.227013,487.738831 81.180122,485.168152 
	C80.882248,468.840698 81.026939,452.505157 81.026871,436.172302 
	C81.026550,355.674591 81.049454,275.176910 81.004158,194.679214 
	C80.996536,181.124130 86.244141,176.121643 99.884995,176.117996 
	C433.042145,176.028931 766.199280,176.048370 1099.356445,176.048599 
	C1104.818970,176.048599 1109.944336,176.810730 1113.028198,182.553833 
	C1113.010376,182.979477 1112.853638,183.121902 1112.583740,182.984161 
	C1111.626831,182.477081 1110.940063,182.107712 1110.253174,181.738342 
	C1110.253174,181.738327 1110.147705,181.766434 1110.135986,181.524109 
	C1109.777710,181.133926 1109.431030,180.986053 1109.084351,180.838196 
	C1109.084351,180.838211 1109.051514,180.965439 1108.951660,180.600861 
	C1107.611084,179.754990 1106.370483,179.273682 1105.129883,178.792389 
	C1105.129883,178.792374 1105.053101,178.832520 1104.907593,178.562256 
	C1103.839478,178.224579 1102.916870,178.157150 1101.531616,178.011078 
	C1100.069702,177.916672 1099.070312,177.887131 1098.071045,177.887131 
	C765.866455,177.887894 433.661835,177.890564 101.457222,177.895935 
	C99.458252,177.895966 97.422432,177.711319 95.473434,178.033722 
	C94.203392,178.243820 93.059555,179.216843 91.859177,179.848083 
	C91.859177,179.848083 91.952362,179.871231 91.598236,179.685059 
	C90.455223,179.967651 89.666321,180.436432 88.877419,180.905197 
	C88.877419,180.905197 88.981148,180.914276 88.634323,180.945648 
	C87.804466,181.611954 87.321442,182.246872 86.838417,182.881805 
	C86.838417,182.881805 86.951477,182.955368 86.609283,182.951843 
	C85.817528,183.621002 85.367950,184.293655 84.918381,184.966324 
	C84.918381,184.966324 84.991005,184.987640 84.647774,185.180237 
	C83.797653,188.288498 82.850204,191.203766 82.847725,194.119858 
	C82.765953,290.357605 82.766953,386.595428 82.818352,482.833221 
	C82.819542,485.059662 83.539391,487.285675 83.924019,489.511902 
z"/>
<path fill="#E2B53C" opacity="1.000000" stroke="none" 
	d="
M89.181679,498.109253 
	C89.606628,497.744202 90.014580,497.779480 91.042725,498.084045 
	C94.952621,498.658508 98.242294,499.230591 101.532036,499.230988 
	C430.871582,499.271545 760.211121,499.269012 1089.550659,499.268036 
	C1093.215454,499.268036 1096.884644,499.357483 1100.542847,499.198547 
	C1102.096436,499.131012 1103.626831,498.529388 1105.167847,498.170502 
	C1105.167847,498.170502 1105.067017,498.262543 1105.482544,498.325043 
	C1108.249268,496.910431 1110.600464,495.433319 1112.951660,493.956177 
	C1113.070923,496.874146 1109.156372,500.620483 1105.533569,500.974701 
	C1104.378052,501.087677 1103.202393,500.998810 1102.036011,500.998810 
	C767.262695,500.999512 432.489380,501.006073 97.716110,500.897278 
	C94.865379,500.896332 92.015144,499.339844 89.181679,498.109253 
z"/>
<path fill="#BC983F" opacity="1.000000" stroke="none" 
	d="
M1113.086670,182.906036 
	C1114.429810,185.545700 1116.095093,188.154800 1116.838867,191.004425 
	C1117.448853,193.341003 1116.961914,195.963760 1116.961914,198.459671 
	C1116.963745,293.971405 1116.965942,389.483154 1116.724243,485.484467 
	C1116.155640,486.043579 1115.827515,486.065491 1115.393799,485.618439 
	C1115.384888,482.704468 1115.559448,480.211884 1115.559937,477.719299 
	C1115.573975,383.975891 1115.585693,290.232483 1115.507568,196.489136 
	C1115.505127,193.636551 1114.546021,190.784760 1114.032959,187.932587 
	C1114.032959,187.932587 1114.006714,187.994659 1114.016724,187.649384 
	C1113.695068,186.516724 1113.363403,185.729370 1113.031860,184.942001 
	C1113.031860,184.941986 1113.007568,185.001434 1113.008179,184.677307 
	C1112.957153,183.942734 1112.905396,183.532318 1112.853638,183.121902 
	C1112.853638,183.121902 1113.010376,182.979477 1113.086670,182.906036 
z"/>
<path fill="#291E02" opacity="1.000000" stroke="none" 
	d="
M1112.979126,493.710999 
	C1110.600464,495.433319 1108.249268,496.910431 1105.535156,498.368530 
	C1107.717285,496.051758 1110.262329,493.753967 1113.067383,491.755981 
	C1113.300171,492.381836 1113.272705,492.707916 1113.245361,493.033997 
	C1113.245361,493.033997 1113.006592,493.465790 1112.979126,493.710999 
z"/>
<path fill="#E2B53C" opacity="1.000000" stroke="none" 
	d="
M1113.583374,493.018921 
	C1113.272705,492.707916 1113.300171,492.381836 1113.414795,491.818420 
	C1113.501831,491.581085 1113.480103,491.483276 1113.647217,491.402466 
	C1113.814209,491.321625 1114.124146,491.047424 1114.433594,491.029846 
	C1115.155884,490.992981 1115.568481,490.973724 1115.981201,490.954468 
	C1115.294678,491.637604 1114.608032,492.320709 1113.583374,493.018921 
z"/>
<path fill="#E2B53C" opacity="1.000000" stroke="none" 
	d="
M1115.496094,486.039825 
	C1115.827515,486.065491 1116.155640,486.043579 1116.726074,485.948242 
	C1116.843018,486.801819 1116.714355,487.681152 1116.116943,488.767731 
	C1115.648315,488.975006 1115.227173,489.022125 1115.232666,488.646423 
	C1115.324097,487.527100 1115.410034,486.783447 1115.496094,486.039825 
z"/>
<path fill="#BC983F" opacity="1.000000" stroke="none" 
	d="
M1115.227173,489.022125 
	C1115.227173,489.022125 1115.648315,488.975006 1115.861206,488.984955 
	C1116.046753,489.430725 1116.019287,489.866516 1115.986572,490.628387 
	C1115.568481,490.973724 1115.155884,490.992981 1114.401123,490.699951 
	C1114.108276,489.950745 1114.157593,489.513824 1114.207031,489.076874 
	C1114.207031,489.076874 1114.081787,489.159851 1114.400879,489.157532 
	C1114.888916,489.110870 1115.057983,489.066498 1115.227173,489.022125 
z"/>
<path fill="#BC983F" opacity="1.000000" stroke="none" 
	d="
M84.964432,494.009705 
	C85.604881,494.502808 86.136520,495.008820 86.804642,495.770508 
	C86.378532,495.832672 85.815933,495.639130 85.041679,494.996582 
	C84.830025,494.547546 84.681595,494.155762 84.681595,494.155762 
	C84.681595,494.155762 84.855614,494.022552 84.964432,494.009705 
z"/>
<path fill="#241A01" opacity="1.000000" stroke="none" 
	d="
M88.053719,496.185211 
	C88.565117,496.194458 89.044006,496.384735 89.140320,496.694733 
	C88.528763,496.786530 88.299805,496.758575 88.070839,496.730652 
	C88.070839,496.730652 88.021217,496.366211 88.053719,496.185211 
z"/>
<path fill="#E2B53C" opacity="1.000000" stroke="none" 
	d="
M84.566986,494.245026 
	C84.681595,494.155762 84.830025,494.547546 84.851639,494.755219 
	C84.521469,494.868439 84.381172,494.658905 84.566986,494.245026 
z"/>
<path fill="#BC983F" opacity="1.000000" stroke="none" 
	d="
M88.176331,497.018311 
	C88.299805,496.758575 88.528763,496.786530 89.095444,496.896301 
	C89.433151,496.978180 89.411339,497.317017 89.400940,497.485107 
	C89.020966,497.537476 88.651390,497.421753 88.176331,497.018311 
z"/>
<path fill="#FEFEFE" opacity="1.000000" stroke="none" 
	d="
M1000.962708,211.537643 
	C1010.953186,213.185669 1021.194275,213.937866 1030.886963,216.649948 
	C1059.763916,224.729874 1075.281738,244.986954 1076.217285,275.071625 
	C1076.448608,282.513611 1076.174805,290.124207 1074.864990,297.429871 
	C1071.985229,313.492950 1062.048462,324.472168 1047.812622,331.842651 
	C1046.631104,332.454407 1045.410889,332.991974 1044.205566,333.557220 
	C1043.204956,334.026398 1042.199707,334.485413 1040.216187,335.401947 
	C1043.833984,336.370300 1046.458130,337.048218 1049.068726,337.775391 
	C1067.036377,342.780426 1078.347778,354.340912 1082.616943,372.477783 
	C1086.300781,388.128052 1086.185791,403.886841 1082.540527,419.537872 
	C1077.178833,442.557068 1061.754150,455.453796 1039.430908,460.137451 
	C1028.427734,462.446014 1017.001709,463.711426 1005.760254,463.756165 
	C927.103821,464.069031 848.445679,463.939423 769.788086,463.951447 
	C768.635864,463.951630 767.483704,463.951477 765.547852,463.951477 
	C765.547852,381.075500 765.547852,298.499237 765.495911,215.229568 
	C765.361511,214.377808 765.278992,214.219437 765.196533,214.061050 
	C765.618042,213.285568 766.039551,212.510086 767.201294,211.677597 
	C841.295959,211.627075 914.650513,211.635315 988.005005,211.635651 
	C992.324219,211.635666 996.643494,211.571793 1000.962708,211.537643 
M988.412659,406.398712 
	C989.225708,406.145508 990.038696,405.892273 991.069275,405.591400 
	C991.069275,405.591400 991.286316,405.541443 992.044800,405.702820 
	C1008.251709,401.684204 1009.275269,375.854736 999.837341,367.131348 
	C995.979309,363.565460 991.649841,361.014587 985.490906,361.426178 
	C985.285461,361.474091 985.080017,361.522034 983.998291,361.256866 
	C939.807495,361.239746 895.616760,361.221069 851.425964,361.217773 
	C850.609619,361.217712 849.793274,361.400757 848.339233,361.284851 
	C847.900635,361.345062 847.462097,361.405273 846.236816,361.214752 
	C843.020752,360.603302 842.415466,362.142487 842.448303,365.083954 
	C842.586731,377.461914 842.439270,389.842865 842.531006,402.221741 
	C842.541138,403.586334 843.413635,404.944550 844.635071,406.669006 
	C887.596252,406.673309 930.557495,406.680023 973.518677,406.668915 
	C974.671265,406.668610 975.823792,406.474976 977.776184,406.685394 
	C980.506348,406.542480 983.236511,406.399567 986.624634,406.474152 
	C987.066772,406.367676 987.508972,406.261230 988.412659,406.398712 
M981.224609,268.689972 
	C980.183838,268.684814 979.143066,268.679657 977.342896,268.333984 
	C934.830017,268.301483 892.317078,268.267395 849.804199,268.251404 
	C849.162537,268.251160 848.520691,268.474121 847.008057,268.352905 
	C844.527832,268.297546 841.705566,267.854401 842.548889,272.706390 
	C842.548889,284.974091 842.548889,297.241791 842.548889,309.408447 
	C843.686340,309.645660 844.169800,309.834625 844.653198,309.834717 
	C889.274536,309.843048 933.895996,309.899719 978.517029,309.784515 
	C988.736694,309.758148 995.090576,304.504272 996.811279,295.495331 
	C999.180481,283.090454 995.190674,274.184753 985.026611,269.238617 
	C984.014221,269.124268 983.001892,269.009918 981.224609,268.689972 
z"/>
<path fill="#FEFEFE" opacity="1.000000" stroke="none" 
	d="
M613.048950,403.159943 
	C614.116516,403.180115 615.184021,403.200256 616.950806,403.176086 
	C624.758423,401.390991 631.866821,399.650208 638.975281,397.909424 
	C647.958435,394.502747 651.546631,387.182129 652.970520,378.394012 
	C653.600098,374.508270 653.908203,370.570465 655.131653,366.509064 
	C680.605835,366.288879 705.310547,366.215912 730.015259,366.142944 
	C730.607605,367.045502 731.664062,367.918610 731.723450,368.854950 
	C732.790833,385.669983 732.990845,402.461304 728.235046,418.851013 
	C721.076599,443.521637 703.598816,457.119781 679.307739,461.755737 
	C664.366821,464.607208 648.985779,465.152588 632.933594,466.854156 
	C607.321533,467.020477 582.578247,467.059784 557.835022,467.114014 
	C542.895752,467.146729 527.956482,467.202667 513.017212,467.248138 
	C501.097656,466.221802 489.093048,465.777588 477.275818,464.050903 
	C450.670074,460.163391 429.658264,447.630707 417.629059,422.635895 
	C411.679779,410.274139 409.371613,396.894135 409.305634,383.344391 
	C409.150635,351.534027 409.256470,319.714508 409.901611,287.911713 
	C410.194092,273.493408 413.672241,259.520630 420.828461,246.773300 
	C429.333649,231.623077 442.614075,222.417648 458.804291,217.035110 
	C477.182709,210.925156 496.228760,209.024643 515.425415,208.904053 
	C553.910156,208.662292 592.403503,208.422791 630.880737,209.006668 
	C646.630371,209.245651 662.514038,210.631805 678.042480,213.244873 
	C705.029602,217.786163 722.017944,233.964798 726.620483,261.241211 
	C728.873718,274.594788 729.011475,288.305328 730.143616,302.311707 
	C703.256592,302.311707 677.838074,302.311707 652.013245,302.311707 
	C651.681946,299.432861 651.441162,296.507172 650.993896,293.613373 
	C649.758789,285.621674 645.630371,279.387115 638.077271,276.562836 
	C632.079529,274.320190 625.564331,272.268555 619.265015,272.226746 
	C587.793152,272.017792 556.316467,272.472626 524.842407,272.786102 
	C522.035583,272.814056 519.212280,273.380798 516.435730,273.904327 
	C498.953156,277.200806 490.209442,284.285309 489.017365,301.932953 
	C487.430450,325.425537 487.768036,349.159607 489.035736,372.695282 
	C489.912598,388.975281 501.005707,397.969818 516.723206,401.165039 
	C518.840271,401.595459 520.977295,401.928223 523.813110,402.444427 
	C526.684937,402.736267 528.848816,402.889923 531.012634,403.043518 
	C531.445312,403.125519 531.878052,403.207550 533.015503,403.371613 
	C553.695312,403.630554 573.670227,403.886963 593.645569,403.938538 
	C600.112671,403.955231 606.581116,403.434723 613.048950,403.159943 
z"/>
<path fill="#FEFEFE" opacity="1.000000" stroke="none" 
	d="
M267.151001,403.328705 
	C282.686707,403.702454 291.394958,396.363708 293.022339,381.236603 
	C293.590851,375.952332 293.854828,370.610474 293.861420,365.294464 
	C293.922638,315.828217 293.893005,266.361877 293.916199,216.895584 
	C293.916962,215.259232 294.199249,213.623016 295.145874,211.796112 
	C300.413727,211.616608 304.886108,211.653503 309.358215,211.634460 
	C329.224487,211.549850 349.090637,211.449219 368.956848,211.354370 
	C369.542969,211.715118 370.129059,212.075867 370.823639,213.116302 
	C370.977448,214.861618 371.022827,215.927246 371.068176,216.992889 
	C370.994263,218.981262 370.857178,220.969589 370.855621,222.958008 
	C370.809540,281.326935 370.776978,339.695892 370.731689,398.841980 
	C370.751862,400.062195 370.782593,400.505280 370.813354,400.948334 
	C369.690826,406.281647 368.888184,411.706512 367.392456,416.933044 
	C359.315857,445.155762 339.571075,459.895660 311.364807,463.838257 
	C298.874054,465.584167 286.166595,466.330048 273.545319,466.475739 
	C248.231567,466.767944 222.889160,466.890228 197.599380,465.966339 
	C185.057480,465.508148 172.376007,463.523499 160.163147,460.558990 
	C137.388535,455.030792 122.839478,440.059174 119.917152,416.820099 
	C117.415245,396.924255 117.881844,376.654053 117.114189,356.546387 
	C117.090736,355.932159 117.943642,355.284515 118.979546,354.567017 
	C119.738716,354.406128 119.906319,354.330627 120.073914,354.255127 
	C133.129227,354.375702 146.184357,354.536560 159.239944,354.602600 
	C167.842468,354.646088 176.445694,354.553070 185.742294,354.487122 
	C186.602402,354.378998 186.768799,354.304962 186.935181,354.230957 
	C187.633163,355.665863 188.845963,357.067749 188.940582,358.541382 
	C189.365158,365.153595 188.886978,371.868713 189.807816,378.395264 
	C192.131943,394.867889 199.147751,401.333008 215.764130,403.330292 
	C217.572922,403.547729 219.402847,403.589172 222.074402,403.722168 
	C236.274124,403.670349 249.622391,403.608582 262.970673,403.546844 
	C263.440186,403.637177 263.909698,403.727509 264.967346,403.746033 
	C266.087311,403.559052 266.619171,403.443878 267.151001,403.328705 
z"/>
<path fill="#E5AE2B" opacity="1.000000" stroke="none" 
	d="
M117.011909,315.307190 
	C116.952995,315.074280 116.894081,314.841370 116.793648,313.840149 
	C116.782562,281.288727 116.818825,249.505661 116.822845,217.722580 
	C116.823013,216.408905 116.521217,215.095200 116.360107,213.781509 
	C117.707520,213.115784 119.052994,211.873337 120.402626,211.868805 
	C152.857697,211.759644 185.313187,211.781067 217.768616,211.795731 
	C218.400879,211.796021 219.033035,211.998795 219.951614,212.156174 
	C220.080826,213.193024 220.300400,214.136063 220.301102,215.079269 
	C220.325287,247.368576 220.331894,279.657898 220.320038,311.947205 
	C220.319672,312.931580 220.095596,313.915924 219.412598,315.245483 
	C192.473282,315.523621 166.097229,315.442505 139.721100,315.407257 
	C136.417038,315.402863 133.112656,315.640869 129.654297,315.665771 
	C129.500168,315.564972 129.193588,315.769104 128.740967,315.634094 
	C124.529533,315.435120 120.770721,315.371155 117.011909,315.307190 
M170.373871,290.739075 
	C181.317413,287.238312 192.288391,283.820343 203.193878,280.204803 
	C209.402542,278.146393 210.771500,275.484375 208.889633,269.185699 
	C207.030945,262.964508 204.692780,256.885559 202.870331,250.654861 
	C201.088425,244.562714 197.502869,241.204498 191.027130,240.225082 
	C173.080994,237.510803 155.200424,234.365799 137.279663,231.479660 
	C130.048447,230.315079 127.405472,233.103531 129.543365,240.165009 
	C134.609589,256.898865 139.925446,273.558655 145.301834,290.196228 
	C147.061310,295.641022 150.125854,296.999756 155.792709,295.321930 
	C160.422333,293.951202 165.003021,292.415161 170.373871,290.739075 
z"/>
<path fill="#241A01" opacity="1.000000" stroke="none" 
	d="
M1104.687500,498.115479 
	C1103.626831,498.529388 1102.096436,499.131012 1100.542847,499.198547 
	C1096.884644,499.357483 1093.215454,499.268036 1089.550659,499.268036 
	C760.211121,499.269012 430.871582,499.271545 101.532036,499.230988 
	C98.242294,499.230591 94.952621,498.658508 91.350830,498.070282 
	C94.420120,497.858185 97.801491,497.991119 101.182869,497.991211 
	C433.525543,497.999573 765.868225,497.997589 1098.210938,497.999237 
	C1100.209717,497.999268 1102.208496,498.039215 1104.687500,498.115479 
z"/>
<path fill="#1F1400" opacity="1.000000" stroke="none" 
	d="
M92.291702,179.893265 
	C93.059555,179.216843 94.203392,178.243820 95.473434,178.033722 
	C97.422432,177.711319 99.458252,177.895966 101.457222,177.895935 
	C433.661835,177.890564 765.866455,177.887894 1098.071045,177.887131 
	C1099.070312,177.887131 1100.069702,177.916672 1101.533569,178.239685 
	C1101.998169,178.546967 1101.996460,179.004608 1101.996460,179.004608 
	C768.863220,179.006210 435.729950,179.005142 102.596695,179.047882 
	C99.305824,179.048309 96.015045,179.628784 92.291702,179.893265 
z"/>
<path fill="#291E02" opacity="1.000000" stroke="none" 
	d="
M1115.232666,488.646423 
	C1115.057983,489.066498 1114.888916,489.110870 1114.462891,489.199921 
	C1114.135132,487.749359 1114.002808,486.254059 1114.002686,484.758789 
	C1113.995239,386.132660 1113.998291,287.506500 1114.016724,188.406464 
	C1114.546021,190.784760 1115.505127,193.636551 1115.507568,196.489136 
	C1115.585693,290.232483 1115.573975,383.975891 1115.559937,477.719299 
	C1115.559448,480.211884 1115.384888,482.704468 1115.393799,485.618439 
	C1115.410034,486.783447 1115.324097,487.527100 1115.232666,488.646423 
z"/>
<path fill="#0D0D0D" opacity="1.000000" stroke="none" 
	d="
M1000.814453,211.188049 
	C996.643494,211.571793 992.324219,211.635666 988.005005,211.635651 
	C914.650513,211.635315 841.295959,211.627075 767.491211,211.493973 
	C768.491882,210.911469 769.942627,210.057938 771.393982,210.056717 
	C846.417725,209.993622 921.441528,209.998367 996.465332,210.039215 
	C997.865723,210.039978 999.265869,210.560471 1000.814453,211.188049 
z"/>
<path fill="#241A01" opacity="1.000000" stroke="none" 
	d="
M83.942818,489.000610 
	C83.539391,487.285675 82.819542,485.059662 82.818352,482.833221 
	C82.766953,386.595428 82.765953,290.357605 82.847725,194.119858 
	C82.850204,191.203766 83.797653,188.288498 84.629272,185.147217 
	C84.623215,286.110840 84.292412,387.300049 83.942818,489.000610 
z"/>
<path fill="#161616" opacity="1.000000" stroke="none" 
	d="
M513.139282,467.620605 
	C527.956482,467.202667 542.895752,467.146729 557.835022,467.114014 
	C582.578247,467.059784 607.321533,467.020477 632.526733,467.055023 
	C631.665039,467.755249 630.342834,468.913605 629.017700,468.917053 
	C591.634277,469.014801 554.250549,469.005310 516.866943,468.954041 
	C515.664612,468.952393 514.463196,468.327423 513.139282,467.620605 
z"/>
<path fill="#241A01" opacity="1.000000" stroke="none" 
	d="
M117.072235,315.643372 
	C120.770721,315.371155 124.529533,315.435120 128.815399,315.661987 
	C129.342438,315.824890 129.808411,315.766571 129.808411,315.766541 
	C133.112656,315.640869 136.417038,315.402863 139.721100,315.407257 
	C166.097229,315.442505 192.473282,315.523621 219.222595,315.664490 
	C218.318741,316.163727 217.042511,316.957794 215.764496,316.960724 
	C185.394196,317.030426 155.023666,317.039459 124.653374,316.970459 
	C122.145699,316.964783 119.639465,316.324768 117.072235,315.643372 
z"/>
<path fill="#161616" opacity="1.000000" stroke="none" 
	d="
M116.004852,214.062469 
	C116.521217,215.095200 116.823013,216.408905 116.822845,217.722580 
	C116.818825,249.505661 116.782562,281.288727 116.622253,313.523071 
	C115.905403,313.462036 114.804718,312.949585 114.804832,312.437408 
	C114.811745,281.021820 114.901276,249.606216 115.024666,218.190796 
	C115.029709,216.907532 115.432259,215.625854 116.004852,214.062469 
z"/>
<path fill="#363636" opacity="1.000000" stroke="none" 
	d="
M612.759521,402.852234 
	C606.581116,403.434723 600.112671,403.955231 593.645569,403.938538 
	C573.670227,403.886963 553.695312,403.630554 533.340637,403.297729 
	C534.177734,402.781403 535.393677,402.109619 536.611267,402.106659 
	C561.094299,402.046997 585.577515,402.059814 610.060730,402.086334 
	C610.863953,402.087189 611.666992,402.385071 612.759521,402.852234 
z"/>
<path fill="#161616" opacity="1.000000" stroke="none" 
	d="
M729.935791,365.734497 
	C705.310547,366.215912 680.605835,366.288879 655.443604,366.246521 
	C656.069092,365.424530 657.148926,364.106842 658.235596,364.101227 
	C681.136841,363.982330 704.038879,363.995239 726.940491,364.067078 
	C727.913818,364.070129 728.884460,364.887878 729.935791,365.734497 
z"/>
<path fill="#0D0D0D" opacity="1.000000" stroke="none" 
	d="
M368.788483,211.024033 
	C349.090637,211.449219 329.224487,211.549850 309.358215,211.634460 
	C304.886108,211.653503 300.413727,211.616608 295.492310,211.474869 
	C296.169525,210.896011 297.294586,210.060440 298.422455,210.056671 
	C321.060059,209.980713 343.697937,209.993774 366.335724,210.030197 
	C367.097565,210.031433 367.858673,210.462830 368.788483,211.024033 
z"/>
<path fill="#121212" opacity="1.000000" stroke="none" 
	d="
M262.823242,403.196136 
	C249.622391,403.608582 236.274124,403.670349 222.478546,403.590088 
	C222.959137,402.964966 223.884079,402.068115 224.815369,402.061432 
	C236.871292,401.974976 248.928162,402.004028 260.984558,402.058136 
	C261.549500,402.060669 262.112122,402.571381 262.823242,403.196136 
z"/>
<path fill="#363636" opacity="1.000000" stroke="none" 
	d="
M638.853027,397.632202 
	C631.866821,399.650208 624.758423,401.390991 617.329468,403.040344 
	C618.479553,402.316681 619.896729,401.457062 621.431152,401.096802 
	C625.279968,400.193176 629.917175,401.453674 632.198792,396.380066 
	C632.443481,395.835938 636.462585,396.989166 638.853027,397.632202 
z"/>
<path fill="#363636" opacity="1.000000" stroke="none" 
	d="
M530.791992,402.756317 
	C528.848816,402.889923 526.684937,402.736267 524.230774,402.396332 
	C526.150757,402.296387 528.361084,402.382721 530.791992,402.756317 
z"/>
<path fill="#121212" opacity="1.000000" stroke="none" 
	d="
M371.406921,216.934906 
	C371.022827,215.927246 370.977448,214.861618 371.018982,213.403412 
	C373.784760,213.891510 373.433350,215.273636 371.406921,216.934906 
z"/>
<path fill="#291E02" opacity="1.000000" stroke="none" 
	d="
M1112.583740,182.984161 
	C1112.905396,183.532318 1112.957153,183.942734 1113.036621,184.662354 
	C1112.085815,184.138214 1111.107178,183.304916 1110.190918,182.104980 
	C1110.940063,182.107712 1111.626831,182.477081 1112.583740,182.984161 
z"/>
<path fill="#291E02" opacity="1.000000" stroke="none" 
	d="
M1105.137939,179.179230 
	C1106.370483,179.273682 1107.611084,179.754990 1108.992920,180.549835 
	C1107.804810,180.430939 1106.475342,179.998489 1105.137939,179.179230 
z"/>
<path fill="#121212" opacity="1.000000" stroke="none" 
	d="
M267.021790,403.077484 
	C266.619171,403.443878 266.087311,403.559052 265.292480,403.577606 
	C265.650513,403.262756 266.271545,403.044525 267.021790,403.077484 
z"/>
<path fill="#1F1400" opacity="1.000000" stroke="none" 
	d="
M89.237534,180.934875 
	C89.666321,180.436432 90.455223,179.967651 91.590057,179.637741 
	C91.156555,180.172592 90.377106,180.568573 89.237534,180.934875 
z"/>
<path fill="#1F1400" opacity="1.000000" stroke="none" 
	d="
M87.186920,182.884354 
	C87.321442,182.246872 87.804466,181.611954 88.595284,180.911194 
	C88.447189,181.525894 87.991302,182.206390 87.186920,182.884354 
z"/>
<path fill="#291E02" opacity="1.000000" stroke="none" 
	d="
M1102.383545,179.006744 
	C1101.996460,179.004608 1101.998169,178.546967 1101.996216,178.318344 
	C1102.916870,178.157150 1103.839478,178.224579 1104.927368,178.600830 
	C1104.318604,178.942734 1103.544678,178.975800 1102.383545,179.006744 
z"/>
<path fill="#1F1400" opacity="1.000000" stroke="none" 
	d="
M85.259521,184.935196 
	C85.367950,184.293655 85.817528,183.621002 86.573959,182.894409 
	C86.454102,183.528336 86.027382,184.216202 85.259521,184.935196 
z"/>
<path fill="#291E02" opacity="1.000000" stroke="none" 
	d="
M1113.016113,185.290588 
	C1113.363403,185.729370 1113.695068,186.516724 1114.050415,187.650589 
	C1113.716187,187.211121 1113.358276,186.425140 1113.016113,185.290588 
z"/>
<path fill="#121212" opacity="1.000000" stroke="none" 
	d="
M764.921448,214.063629 
	C765.278992,214.219437 765.361511,214.377808 765.342773,214.784149 
	C764.786621,214.826004 764.331604,214.619843 763.876587,214.413666 
	C764.133179,214.297836 764.389771,214.182022 764.921448,214.063629 
z"/>
<path fill="#291E02" opacity="1.000000" stroke="none" 
	d="
M1113.891113,489.238159 
	C1114.157593,489.513824 1114.108276,489.950745 1114.091553,490.717560 
	C1114.124146,491.047424 1113.814209,491.321625 1113.614624,491.364258 
	C1113.468506,490.737762 1113.521973,490.068604 1113.891113,489.238159 
z"/>
<path fill="#121212" opacity="1.000000" stroke="none" 
	d="
M371.072144,400.833679 
	C370.782593,400.505280 370.751862,400.062195 370.825897,399.301575 
	C371.064117,399.562347 371.197540,400.140656 371.072144,400.833679 
z"/>
<path fill="#0D0D0D" opacity="1.000000" stroke="none" 
	d="
M186.855774,354.031708 
	C186.768799,354.304962 186.602402,354.378998 186.187500,354.339539 
	C186.218140,354.094849 186.497253,353.963654 186.855774,354.031708 
z"/>
<path fill="#0D0D0D" opacity="1.000000" stroke="none" 
	d="
M119.975594,354.062378 
	C119.906319,354.330627 119.738716,354.406128 119.320099,354.367493 
	C119.338478,354.125488 119.607872,353.997559 119.975594,354.062378 
z"/>
<path fill="#291E02" opacity="1.000000" stroke="none" 
	d="
M1109.167969,181.099518 
	C1109.431030,180.986053 1109.777710,181.133926 1110.152832,181.576019 
	C1109.871460,181.700455 1109.561523,181.530640 1109.167969,181.099518 
z"/>
<path fill="#262626" opacity="1.000000" stroke="none" 
	d="
M843.886169,406.305695 
	C843.413635,404.944550 842.541138,403.586334 842.531006,402.221741 
	C842.439270,389.842865 842.586731,377.461914 842.448303,365.083954 
	C842.415466,362.142487 843.020752,360.603302 846.600525,361.622925 
	C847.100647,362.654175 847.237122,363.277313 847.373535,363.900452 
	C847.908020,363.099762 848.442505,362.299103 848.976929,361.498413 
	C849.793274,361.400757 850.609619,361.217712 851.425964,361.217773 
	C895.616760,361.221069 939.807495,361.239746 984.542969,361.641144 
	C985.420410,361.897614 985.753174,361.769806 986.085999,361.641998 
	C991.649841,361.014587 995.979309,363.565460 999.837341,367.131348 
	C1009.275269,375.854736 1008.251709,401.684204 991.435852,405.271790 
	C988.747925,403.737518 986.767273,402.971710 985.966675,406.256653 
	C983.236511,406.399567 980.506348,406.542480 977.344666,406.153534 
	C975.706055,405.084351 974.499939,404.079651 973.291809,404.077271 
	C931.548401,403.994598 889.804810,403.984406 848.061584,404.101929 
	C846.667725,404.105865 845.277893,405.538818 843.886169,406.305695 
z"/>
<path fill="#222222" opacity="1.000000" stroke="none" 
	d="
M847.878967,268.592926 
	C848.520691,268.474121 849.162537,268.251160 849.804199,268.251404 
	C892.317078,268.267395 934.830017,268.301483 977.738037,268.884827 
	C979.762207,269.596863 981.391296,269.758057 983.398560,269.914703 
	C984.275513,269.853943 984.774353,269.797729 985.273193,269.741516 
	C995.190674,274.184753 999.180481,283.090454 996.811279,295.495331 
	C995.090576,304.504272 988.736694,309.758148 978.517029,309.784515 
	C933.895996,309.899719 889.274536,309.843048 844.653198,309.834717 
	C844.169800,309.834625 843.686340,309.645660 842.548889,309.408447 
	C842.548889,297.241791 842.548889,284.974091 843.106750,272.302917 
	C845.069397,270.797272 846.474182,269.695099 847.878967,268.592926 
z"/>
<path fill="#161616" opacity="1.000000" stroke="none" 
	d="
M844.260620,406.487366 
	C845.277893,405.538818 846.667725,404.105865 848.061584,404.101929 
	C889.804810,403.984406 931.548401,403.994598 973.291809,404.077271 
	C974.499939,404.079651 975.706055,405.084351 976.944763,405.996582 
	C975.823792,406.474976 974.671265,406.668610 973.518677,406.668915 
	C930.557495,406.680023 887.596252,406.673309 844.260620,406.487366 
z"/>
<path fill="#161616" opacity="1.000000" stroke="none" 
	d="
M847.443481,268.472900 
	C846.474182,269.695099 845.069397,270.797272 843.285095,271.935455 
	C841.705566,267.854401 844.527832,268.297546 847.443481,268.472900 
z"/>
<path fill="#161616" opacity="1.000000" stroke="none" 
	d="
M983.020386,269.919250 
	C981.391296,269.758057 979.762207,269.596863 978.117676,269.055084 
	C979.143066,268.679657 980.183838,268.684814 981.703857,269.025421 
	C982.462158,269.546997 982.741272,269.733124 983.020386,269.919250 
z"/>
<path fill="#161616" opacity="1.000000" stroke="none" 
	d="
M848.658081,361.391632 
	C848.442505,362.299103 847.908020,363.099762 847.373535,363.900452 
	C847.237122,363.277313 847.100647,362.654175 846.993896,361.748291 
	C847.462097,361.405273 847.900635,361.345062 848.658081,361.391632 
z"/>
<path fill="#161616" opacity="1.000000" stroke="none" 
	d="
M986.295654,406.365417 
	C986.767273,402.971710 988.747925,403.737518 991.056641,405.191101 
	C991.286316,405.541443 991.069275,405.591400 990.579224,405.439423 
	C989.376465,405.576569 988.663818,405.865662 987.951111,406.154785 
	C987.508972,406.261230 987.066772,406.367676 986.295654,406.365417 
z"/>
<path fill="#686868" opacity="1.000000" stroke="none" 
	d="
M983.398560,269.914703 
	C982.741272,269.733124 982.462158,269.546997 982.086304,269.128204 
	C983.001892,269.009918 984.014221,269.124268 985.149902,269.490051 
	C984.774353,269.797729 984.275513,269.853943 983.398560,269.914703 
z"/>
<path fill="#262626" opacity="1.000000" stroke="none" 
	d="
M988.181885,406.276733 
	C988.663818,405.865662 989.376465,405.576569 990.470459,405.463257 
	C990.038696,405.892273 989.225708,406.145508 988.181885,406.276733 
z"/>
<path fill="#161616" opacity="1.000000" stroke="none" 
	d="
M985.788452,361.534088 
	C985.753174,361.769806 985.420410,361.897614 984.981079,361.797729 
	C985.080017,361.522034 985.285461,361.474091 985.788452,361.534088 
z"/>
<path fill="#4B340A" opacity="1.000000" stroke="none" 
	d="
M169.989639,290.845764 
	C165.003021,292.415161 160.422333,293.951202 155.792709,295.321930 
	C150.125854,296.999756 147.061310,295.641022 145.301834,290.196228 
	C139.925446,273.558655 134.609589,256.898865 129.543365,240.165009 
	C127.405472,233.103531 130.048447,230.315079 137.279663,231.479660 
	C155.200424,234.365799 173.080994,237.510803 191.027130,240.225082 
	C197.502869,241.204498 201.088425,244.562714 202.870331,250.654861 
	C204.692780,256.885559 207.030945,262.964508 208.889633,269.185699 
	C210.771500,275.484375 209.402542,278.146393 203.193878,280.204803 
	C192.288391,283.820343 181.317413,287.238312 169.989639,290.845764 
M135.691650,249.876602 
	C136.212845,251.573151 136.734039,253.269714 137.225281,255.539078 
	C137.449219,256.030060 137.673172,256.521027 137.959732,257.707214 
	C138.278824,258.551392 138.597916,259.395599 138.961517,260.633820 
	C138.961517,260.633820 139.162277,260.975769 139.125092,261.646759 
	C139.686020,262.805908 140.246964,263.965057 140.764908,265.064606 
	C140.764908,265.064606 140.750153,265.136597 140.706223,265.937927 
	C143.024582,273.493195 145.346313,281.047394 147.659912,288.604126 
	C148.863998,292.536987 151.368088,293.794250 155.256088,292.404816 
	C158.492844,291.248138 161.757172,290.168610 165.721725,289.039276 
	C166.819809,288.633759 167.917892,288.228271 169.716431,287.829498 
	C171.474655,287.215637 173.232895,286.601807 175.573349,286.004425 
	C176.098328,285.791656 176.623306,285.578918 177.926010,285.270569 
	C185.870193,282.818329 193.822876,280.393188 201.755539,277.904175 
	C206.915527,276.285156 207.856857,274.518463 206.209595,269.400848 
	C204.069580,262.752258 202.175186,255.987778 199.445572,249.584122 
	C198.367233,247.054306 195.584656,243.966812 193.136917,243.513046 
	C177.131821,240.545959 161.005768,238.231430 144.380463,235.433868 
	C143.584900,235.330704 142.789322,235.227539 141.219238,234.840744 
	C140.076584,234.616364 138.942078,234.330170 137.789886,234.178009 
	C131.990570,233.412109 130.738205,234.761368 132.400970,240.421890 
	C133.276535,243.402573 134.663452,246.233047 135.815338,249.019608 
	C135.815338,249.019608 135.753265,249.112610 135.691650,249.876602 
z"/>
<path fill="#232323" opacity="1.000000" stroke="none" 
	d="
M129.654297,315.665771 
	C129.808411,315.766571 129.342438,315.824890 129.268005,315.796997 
	C129.193588,315.769104 129.500168,315.564972 129.654297,315.665771 
z"/>
<path fill="#CEA53F" opacity="1.000000" stroke="none" 
	d="
M144.919235,235.703644 
	C161.005768,238.231430 177.131821,240.545959 193.136917,243.513046 
	C195.584656,243.966812 198.367233,247.054306 199.445572,249.584122 
	C202.175186,255.987778 204.069580,262.752258 206.209595,269.400848 
	C207.856857,274.518463 206.915527,276.285156 201.755539,277.904175 
	C193.822876,280.393188 185.870193,282.818329 177.360748,284.993835 
	C175.924255,283.639099 175.052994,282.561035 174.583191,281.585815 
	C177.245422,281.440002 179.555206,281.402557 181.755203,280.892029 
	C184.877411,280.167480 188.009476,279.243774 187.438797,274.851990 
	C186.402924,266.879974 184.663940,264.754730 179.101471,264.435974 
	C180.921631,263.518250 182.649841,262.949463 184.213425,262.434875 
	C184.213425,260.513672 184.213425,258.640350 184.505203,256.988037 
	C187.141953,264.039337 189.486923,270.869629 191.788818,277.574463 
	C205.124374,275.921295 205.609894,271.492645 199.495850,260.987549 
	C199.029266,260.185852 198.135452,259.340454 198.191925,258.570526 
	C199.030640,247.136551 192.524841,244.494995 181.603516,245.279556 
	C182.454880,249.090790 183.304367,252.893555 183.754913,256.798279 
	C182.538559,256.890869 181.721130,256.881500 181.018188,256.486816 
	C179.093842,244.363220 175.144760,241.345367 163.070892,241.968475 
	C160.972519,238.777451 158.677597,237.808945 155.422058,240.483429 
	C152.652695,240.047119 150.295929,239.637482 148.034744,238.926651 
	C147.059952,237.651505 145.989594,236.677567 144.919235,235.703644 
z"/>
<path fill="#DFAB2D" opacity="1.000000" stroke="none" 
	d="
M144.649841,235.568756 
	C145.989594,236.677567 147.059952,237.651505 147.633087,238.933624 
	C146.116440,239.507401 145.097015,239.773010 144.077591,240.038635 
	C144.930298,242.674713 145.173325,247.075867 146.748596,247.619980 
	C151.720871,249.337479 151.522354,253.561111 152.747726,257.040344 
	C154.618225,262.351288 156.117859,267.796722 157.649872,273.220367 
	C158.035721,274.586395 157.946259,276.086700 158.075226,277.525269 
	C157.376770,277.719452 156.678314,277.913605 155.979858,278.107758 
	C154.841431,275.092651 153.884659,271.988953 152.478409,269.104431 
	C151.886139,267.889526 150.259171,266.277710 149.255737,266.378082 
	C147.789566,266.524719 146.461395,268.051270 144.735260,268.951538 
	C143.180801,267.654480 141.965469,266.395538 140.750153,265.136597 
	C140.750153,265.136597 140.764908,265.064606 140.850159,264.719788 
	C140.344376,263.241913 139.753326,262.108826 139.162277,260.975769 
	C139.162277,260.975769 138.961517,260.633820 138.968903,260.066864 
	C138.616577,258.670593 138.256851,257.841309 137.897110,257.011993 
	C137.673172,256.521027 137.449219,256.030060 137.455307,255.001785 
	C137.041306,252.680527 136.397278,250.896576 135.753265,249.112610 
	C135.753265,249.112610 135.815338,249.019608 135.878326,248.650818 
	C135.226807,244.025391 134.512268,239.768768 133.845490,235.796555 
	C137.372910,235.505569 139.683334,235.314972 141.993759,235.124374 
	C142.789322,235.227539 143.584900,235.330704 144.649841,235.568756 
z"/>
<path fill="#D4A534" opacity="1.000000" stroke="none" 
	d="
M174.181732,281.483002 
	C175.052994,282.561035 175.924255,283.639099 176.971893,285.041626 
	C176.623306,285.578918 176.098328,285.791656 175.064835,285.734131 
	C172.709549,286.250122 170.862762,287.036438 169.015976,287.822754 
	C167.917892,288.228271 166.819809,288.633759 165.412323,288.691345 
	C165.720901,286.863098 166.338898,285.382751 166.995499,283.563904 
	C167.206284,282.805878 167.378464,282.386353 167.851456,281.863495 
	C167.195374,278.841736 166.238480,275.923279 165.087158,272.674133 
	C162.843735,265.833527 160.763199,259.333221 158.778595,252.803787 
	C158.468536,251.783676 158.148254,250.381256 158.594940,249.581161 
	C160.918304,245.419540 160.080246,242.360611 155.834686,240.510101 
	C158.677597,237.808945 160.972519,238.777451 162.903961,242.265686 
	C162.855988,244.534241 162.583481,246.203674 162.994873,247.682907 
	C164.634384,253.578125 166.367355,259.453796 168.295212,265.260529 
	C170.107071,270.717926 172.207993,276.079346 174.181732,281.483002 
z"/>
<path fill="#CEA53F" opacity="1.000000" stroke="none" 
	d="
M166.956879,283.902405 
	C166.338898,285.382751 165.720901,286.863098 165.056091,288.699158 
	C161.757172,290.168610 158.492844,291.248138 155.256088,292.404816 
	C151.368088,293.794250 148.863998,292.536987 147.659912,288.604126 
	C145.346313,281.047394 143.024582,273.493195 140.728180,265.537262 
	C141.965469,266.395538 143.180801,267.654480 144.985626,269.209839 
	C146.635239,272.654327 147.739716,275.788269 148.747238,278.953094 
	C151.860641,288.732880 153.524292,289.595276 163.035660,286.046265 
	C164.417053,285.530792 165.653412,284.626678 166.956879,283.902405 
z"/>
<path fill="#CEA53F" opacity="1.000000" stroke="none" 
	d="
M141.606506,234.982559 
	C139.683334,235.314972 137.372910,235.505569 133.845490,235.796555 
	C134.512268,239.768768 135.226807,244.025391 135.880402,248.706680 
	C134.663452,246.233047 133.276535,243.402573 132.400970,240.421890 
	C130.738205,234.761368 131.990570,233.412109 137.789886,234.178009 
	C138.942078,234.330170 140.076584,234.616364 141.606506,234.982559 
z"/>
<path fill="#CEA53F" opacity="1.000000" stroke="none" 
	d="
M169.366211,287.826141 
	C170.862762,287.036438 172.709549,286.250122 174.773727,285.725891 
	C173.232895,286.601807 171.474655,287.215637 169.366211,287.826141 
z"/>
<path fill="#CEA53F" opacity="1.000000" stroke="none" 
	d="
M135.722458,249.494598 
	C136.397278,250.896576 137.041306,252.680527 137.470276,254.715378 
	C136.734039,253.269714 136.212845,251.573151 135.722458,249.494598 
z"/>
<path fill="#CEA53F" opacity="1.000000" stroke="none" 
	d="
M139.143677,261.311279 
	C139.753326,262.108826 140.344376,263.241913 140.871658,264.749573 
	C140.246964,263.965057 139.686020,262.805908 139.143677,261.311279 
z"/>
<path fill="#CEA53F" opacity="1.000000" stroke="none" 
	d="
M137.928421,257.359619 
	C138.256851,257.841309 138.616577,258.670593 138.946655,259.869843 
	C138.597916,259.395599 138.278824,258.551392 137.928421,257.359619 
z"/>
<path fill="#302817" opacity="1.000000" stroke="none" 
	d="
M166.995483,283.563904 
	C165.653412,284.626678 164.417053,285.530792 163.035660,286.046265 
	C153.524292,289.595276 151.860641,288.732880 148.747238,278.953094 
	C147.739716,275.788269 146.635239,272.654327 145.324768,269.247955 
	C146.461395,268.051270 147.789566,266.524719 149.255737,266.378082 
	C150.259171,266.277710 151.886139,267.889526 152.478409,269.104431 
	C153.884659,271.988953 154.841431,275.092651 155.979858,278.107758 
	C156.678314,277.913605 157.376770,277.719452 158.075226,277.525269 
	C157.946259,276.086700 158.035721,274.586395 157.649872,273.220367 
	C156.117859,267.796722 154.618225,262.351288 152.747726,257.040344 
	C151.522354,253.561111 151.720871,249.337479 146.748596,247.619980 
	C145.173325,247.075867 144.930298,242.674713 144.077591,240.038635 
	C145.097015,239.773010 146.116440,239.507401 147.537521,239.234833 
	C150.295929,239.637482 152.652695,240.047119 155.422058,240.483429 
	C160.080246,242.360611 160.918304,245.419540 158.594940,249.581161 
	C158.148254,250.381256 158.468536,251.783676 158.778595,252.803787 
	C160.763199,259.333221 162.843735,265.833527 165.086975,273.050720 
	C166.037689,276.494293 166.794159,279.230560 167.550629,281.966827 
	C167.378464,282.386353 167.206284,282.805878 166.995483,283.563904 
z"/>
<path fill="#312917" opacity="1.000000" stroke="none" 
	d="
M174.583191,281.585815 
	C172.207993,276.079346 170.107071,270.717926 168.295212,265.260529 
	C166.367355,259.453796 164.634384,253.578125 162.994873,247.682907 
	C162.583481,246.203674 162.855988,244.534241 162.981140,242.655029 
	C175.144760,241.345367 179.093842,244.363220 181.026688,256.516083 
	C180.920670,256.930634 180.951248,256.882263 180.557678,256.838348 
	C174.347336,258.883636 176.044205,250.444122 170.473541,250.235229 
	C172.101639,254.809219 173.482605,258.688904 174.806152,262.941895 
	C176.043030,266.623962 175.464233,270.891174 180.226440,272.664429 
	C179.820801,270.037933 179.415161,267.411438 179.009521,264.784912 
	C184.663940,264.754730 186.402924,266.879974 187.438797,274.851990 
	C188.009476,279.243774 184.877411,280.167480 181.755203,280.892029 
	C179.555206,281.402557 177.245422,281.440002 174.583191,281.585815 
z"/>
<path fill="#372D16" opacity="1.000000" stroke="none" 
	d="
M184.153839,256.696320 
	C183.304367,252.893555 182.454880,249.090790 181.603516,245.279556 
	C192.524841,244.494995 199.030640,247.136551 198.191925,258.570526 
	C198.135452,259.340454 199.029266,260.185852 199.495850,260.987549 
	C205.609894,271.492645 205.124374,275.921295 191.788818,277.574463 
	C189.486923,270.869629 187.141953,264.039337 184.431915,257.017212 
	C184.066849,256.825348 184.153839,256.696320 184.153839,256.696320 
z"/>
<path fill="#D4A534" opacity="1.000000" stroke="none" 
	d="
M179.101471,264.435974 
	C179.415161,267.411438 179.820801,270.037933 180.226440,272.664429 
	C175.464233,270.891174 176.043030,266.623962 174.838028,262.492249 
	C173.997589,256.376740 179.502182,259.181244 180.951248,256.882263 
	C180.951248,256.882263 180.920670,256.930634 180.912170,256.901367 
	C181.721130,256.881500 182.538559,256.890869 183.754913,256.798279 
	C184.153839,256.696320 184.066849,256.825348 184.140137,256.796204 
	C184.213425,258.640350 184.213425,260.513672 184.213425,262.434875 
	C182.649841,262.949463 180.921631,263.518250 179.101471,264.435974 
z"/>
<path fill="#CEA53F" opacity="1.000000" stroke="none" 
	d="
M167.851440,281.863495 
	C166.794159,279.230560 166.037689,276.494293 165.281403,273.381439 
	C166.238480,275.923279 167.195374,278.841736 167.851440,281.863495 
z"/>
<path fill="#CEA53F" opacity="1.000000" stroke="none" 
	d="
M180.557678,256.838348 
	C179.502182,259.181244 173.997589,256.376740 174.895432,262.118896 
	C173.482605,258.688904 172.101639,254.809219 170.473541,250.235229 
	C176.044205,250.444122 174.347336,258.883636 180.557678,256.838348 
z"/>
</svg>