<svg id="Lager_1" data-name="Lager 1" xmlns="http://www.w3.org/2000/svg" viewBox="0 0 1080 186.59"><path d="M.5 402.71v186.58h884a111.91 111.91 0 0089.5-44.71l106.5-141.87zm355.87 46.92a3 3 0 013.05-3.05h11.66a3 3 0 013.05 3.05v7.78a3 3 0 01-3.05 3h-11.66a3 3 0 01-3.05-3zm-25.17 0a3 3 0 013.05-3.05h11.67a3 3 0 013.05 3.05v7.78a3.06 3.06 0 01-3.05 3h-11.67a3.06 3.06 0 01-3.05-3zM262 533h-24.93c-19.06 0-24.57-3.68-24.57-16.42v-8.9c.25.19.49.38.77.56 3.7 2.46 8.63 3.87 16.69 4.56v1.32c.78 6.56 4.83 7.12 10.35 7.12h25.16c3.12 0 10.41 0 10.41-7.25 0-7.82-4.66-7.82-30.48-7.82-6.28 0-11.34-.17-15.44-.55-8.44-.78-12.8-2.47-15-5.49a8.47 8.47 0 01-.82-1.36c-1.34-2.74-1.5-6.37-1.5-11.12 0-10.66 0-19.85 25.4-19.85h28.68c22.61 0 24.3 7.2 24.3 18.18v5.11c-4.15-2.3-9.71-3.43-17.34-4v-.65c-.33-4.87-2.51-6.93-11.56-6.93h-22.83c-8.47 0-9.39 4.75-9.39 6.79 0 1.77.19 3.6 1.58 5 2.24 2.23 6.68 2.57 19.1 2.57h7.74c17.84 0 27.23.9 31.59 5.25 2.69 2.68 3.83 7 3.83 14.52 0 16.5-4.74 19.36-31.74 19.36zm135-22.58c0 14-4.66 22.62-27.9 22.62h-32.9c-17.23 0-27.9-3.78-27.9-22.62V504h17.86c0 9.75 2.13 15 13.37 15h26.27c8.67 0 13.37-2.39 13.37-15H397zm0-13.56h-17.83c0-9-2.46-15-14.48-15h-24.05c-12 0-14.48 6-14.48 15H308.3v-6.43c0-14 4.66-22.62 27.9-22.62h32.93c17.23 0 27.9 3.78 27.9 22.62zm92.37-1.25c0 4.85-1.17 16.41-12 19.22l-2.34.61 12.67 16.86h-19.49l-12.64-16.84L445.48 502h17.78c5.18 0 8.27-3.27 8.27-8.74v-2.59c0-5.8-3.37-8.74-10-8.74h-31.8v50.37h-17.32v-63.75h54.36c19.94 0 22.63 10.78 22.63 21.33zM568 532.3h-63.45v-63.75h17.31v49.77H568zm29.75 0h-17.29v-63.75h17.32zm82.37 0l-47.52-46.73v46.73h-17.28v-63.75h24.83l47.44 46.7v-46.7h17.31v63.75h-24.75zM804.6 497v17.45c0 17.66-8.09 18.55-31.51 18.55h-24.7c-17.22 0-27.9-3.78-27.9-22.62v-22.21c.53-12.63 5.9-20.36 27.85-20.36h30.9c23.15 0 24.94 8.22 24.94 19.85v.51h-17c-.69-6.89-6-7.49-11.89-7.49H753c-8.39 0-12.32 1.79-13.85 7.49a56.78 56.78 0 00-.8 7.14v9.28c0 12.23 3.15 15.58 14.66 15.58H775c3.37 0 12.34 0 12.34-8.92v-3.56h-25.58v-12.26h42.84z" transform="translate(-.5 -402.71)"/></svg>